# xmcd
#
# Track frame offsets: 
#        150
#        13573
#        23180
#        45601
#        60152
#        74626
#        91198
#        106196
#        123059
#        144293
#        161004
#        175404
#
# Disc length: 2566 seconds
#
# Revision: 0
# Processed by: cddbd v1.4PL0 Copyright (c) Steve Scherf et al.
# Submitted via: ExactAudioCopy v0.90b4
#
DISCID=910a040c
DTITLE=Higgins and Sina - Exception To The Rule
DYEAR=2000
DGENRE=Country
TTITLE0=Human Highway
TTITLE1=When Will I Be Loved
TTITLE2=The Letter
TTITLE3=Ruby Tuesday
TTITLE4=Dreams Undone
TTITLE5=The Rose
TTITLE6=Ring Of Fire
TTITLE7=Here's My Hand
TTITLE8=City Of New Orleans
TTITLE9=Pure And Simple
TTITLE10=Exception To The Rule
TTITLE11=If I Were A Carpenter
EXTD=
EXTT0=
EXTT1=
EXTT2=
EXTT3=
EXTT4=
EXTT5=
EXTT6=
EXTT7=
EXTT8=
EXTT9=
EXTT10=
EXTT11=
PLAYORDER=
